<?xml version="1.0" encoding="utf-8"?>
<!-- Generator: Adobe Illustrator 16.0.0, SVG Export Plug-In . SVG Version: 6.00 Build 0)  -->
<!DOCTYPE svg PUBLIC "-//W3C//DTD SVG 1.1//EN" "http://www.w3.org/Graphics/SVG/1.1/DTD/svg11.dtd">
<svg version="1.1" xmlns="http://www.w3.org/2000/svg" xmlns:xlink="http://www.w3.org/1999/xlink" x="0px" y="0px" width="1500px"
	 height="1500px" viewBox="0 0 1500 1500" enable-background="new 0 0 1500 1500" xml:space="preserve">
<g id="Layer_1" display="none">

		<image display="inline" overflow="visible" width="1202" height="1202" xlink:href="../Downloads/logo.png"  transform="matrix(1.7907 0 0 1.7907 -326 -326)">
	</image>
</g>
<g id="Layer_7">
	<g>
		<path fill="#202020" d="M1465.893,1445.893c0,11-9,20-20,20H54.107c-11,0-20-9-20-20V54.107c0-11,9-20,20-20h1391.785
			c11,0,20,9,20,20V1445.893z"/>
	</g>
</g>
<g id="Layer_3">
	<g>
		<g>
			<path fill="#6A6A6A" d="M966.458,365.572v57.709v18.797v109.998h68.268v-42.432c48.921,62.8,78.122,141.717,78.122,227.357
				c0,204.224-165.912,370.374-369.848,370.374c-101.378,0-193.349-41.07-260.224-107.455l-35.809,53.406
				c77.508,72.758,181.655,117.391,296.033,117.391c238.862,0,433.189-194.564,433.189-433.716
				C1176.189,579.642,1092.051,441.599,966.458,365.572z"/>
			<path fill="#6A6A6A" d="M456.181,970.557L687.4,620.697l133.019,211.139h78.121l-185.803-279.76h-50.674L419.23,915.834
				l0.001,0.135c-29.406-53.047-46.078-113.977-46.078-178.968c0-204.227,165.913-370.375,369.847-370.375
				c67.54,0,130.898,18.238,185.452,50.032v-71.563C872.203,318.303,809.323,303.284,743,303.284
				c-238.862,0-433.189,194.564-433.189,433.717c0,110.683,41.647,211.798,110.048,288.513L456.181,970.557L456.181,970.557z"/>
		</g>
		<g>
			<path fill="#FFEE32" d="M966.458,365.572v57.709v18.797v109.998h68.268v-42.432c48.921,62.8,78.122,141.717,78.122,227.357
				c0,204.224-165.912,370.374-369.848,370.374c-101.378,0-193.349-41.07-260.224-107.455l-35.809,53.406
				c77.508,72.758,181.655,117.391,296.033,117.391c238.862,0,433.189-194.564,433.189-433.716
				C1176.189,579.642,1092.051,441.599,966.458,365.572z"/>
			<path fill="#FFEE32" d="M456.181,970.557L687.4,620.697l133.019,211.139h78.121l-185.803-279.76h-50.674L419.23,915.834
				l0.001,0.135c-29.406-53.047-46.078-113.977-46.078-178.968c0-204.227,165.913-370.375,369.847-370.375
				c67.54,0,130.898,18.238,185.452,50.032v-71.563C872.203,318.303,809.323,303.284,743,303.284
				c-238.862,0-433.189,194.564-433.189,433.717c0,110.683,41.647,211.798,110.048,288.513L456.181,970.557L456.181,970.557z"/>
		</g>
	</g>
	<path fill="#FFEE32" d="M966.458,586.211h68.268v247.386c0,0,4.573,70.379-90.085,76.713H539.954l33.783-54.193h361.051
		c0,0,31.846-0.527,32.374-31.67L966.458,586.211z"/>
</g>
</svg>
